<?xml version="1.0" encoding="utf-8"?>
<!-- Generator: Adobe Illustrator 24.0.1, SVG Export Plug-In . SVG Version: 6.00 Build 0)  -->
<svg version="1.1" id="Layer_1" xmlns="http://www.w3.org/2000/svg" xmlns:xlink="http://www.w3.org/1999/xlink" x="0px" y="0px"
	 viewBox="0 0 125 40" style="enable-background:new 0 0 125 40;" xml:space="preserve">
<style type="text/css">
	.st0{fill:#FFFFFF;}
	.st1{fill:#312783;}
	.st2{fill:#467B37;}
	.st3{fill:#E63323;}
	.st4{fill:#005832;}
	.st5{fill:#83D0F5;}
	.st6{fill:#FFE843;}
	.st7{fill:#A8D3AF;}
	.st8{fill:#F29FC5;}
</style>
<title>Logo Prueba Ikigai</title>
<g id="Layer_6">
	<path class="st0" d="M41.8,28.8v-20h3.3v20H41.8z"/>
	<path class="st0" d="M58,28.8L51.2,22v6.8h-3.1V7.7h3.1v12.4l5.4-5.4h3.9L54.3,21l7.8,7.8H58z"/>
	<path class="st0" d="M63.7,11.6c-0.6,0-1.1-0.2-1.5-0.6c-0.4-0.4-0.6-0.9-0.6-1.5c0-0.5,0.2-1.1,0.6-1.4c0.4-0.4,0.9-0.6,1.5-0.6
		c0.6,0,1.1,0.2,1.5,0.6c0.4,0.4,0.6,0.9,0.6,1.4c0,0.6-0.2,1.1-0.6,1.5C64.8,11.4,64.3,11.6,63.7,11.6z M62.2,28.8V14.7h3.1v14.1
		H62.2z"/>
	<path class="st0" d="M74.4,35c-1.7,0.1-3.3-0.4-4.7-1.4c-1.2-0.9-2-2.2-2.1-3.7h3c0.6,1.6,1.9,2.4,3.9,2.4c1,0,2-0.4,2.8-1.1
		c0.8-0.8,1.2-1.9,1.1-3.1v-1.7c-0.5,0.7-1.1,1.2-1.9,1.6c-0.8,0.4-1.7,0.6-2.6,0.6c-1.8,0-3.5-0.7-4.8-2.1c-1.3-1.4-2-3.2-2-5.1
		c0-1.9,0.7-3.7,2-5.1c1.2-1.4,3-2.1,4.8-2.1c0.9,0,1.8,0.2,2.6,0.6c0.7,0.4,1.4,0.9,1.9,1.6v-1.9h3.1V28c0.1,2-0.6,3.9-2,5.3
		C78,34.5,76.2,35.1,74.4,35z M71.4,24.7c1.7,1.6,4.3,1.6,6,0c0.8-0.8,1.2-1.9,1.2-3.1c0-1.2-0.4-2.3-1.2-3.1c-1.7-1.6-4.3-1.6-6,0
		c-0.8,0.8-1.2,1.9-1.2,3.1C70.1,22.7,70.6,23.8,71.4,24.7L71.4,24.7z"/>
	<path class="st0" d="M84.2,28.8V14.7h3.1v2.5c0.3-0.8,0.8-1.5,1.4-1.9c0.7-0.5,1.4-0.7,2.3-0.7c0.4,0,0.8,0,1.2,0.1v3.2
		c-0.5-0.2-1-0.3-1.6-0.3c-0.9,0-1.8,0.4-2.4,1.1c-0.7,0.9-1.1,2-1,3.2v6.9H84.2z"/>
	<path class="st0" d="M98.8,29.1c-1.8,0-3.6-0.7-4.8-2.1c-1.3-1.4-2-3.3-2-5.2c0-1.9,0.7-3.8,2-5.2c1.2-1.4,3-2.2,4.8-2.1
		c0.9,0,1.8,0.2,2.7,0.6c0.7,0.4,1.4,0.9,1.9,1.5v-1.9h3.1v14.1h-3.1v-1.9c-0.5,0.7-1.1,1.2-1.9,1.5C100.7,28.9,99.7,29.1,98.8,29.1
		z M96.3,25c1.6,1.7,4.2,1.7,5.9,0.1c0,0,0.1-0.1,0.1-0.1c0.8-0.9,1.2-2,1.2-3.2c0-1.2-0.4-2.3-1.2-3.2c-1.6-1.7-4.2-1.7-5.9-0.1
		c0,0-0.1,0.1-0.1,0.1c-0.8,0.9-1.2,2-1.2,3.2C95.1,23,95.5,24.1,96.3,25z"/>
	<path class="st0" d="M110.5,28.8V17.5h-2.9v-2.8h2.9v-2.4c-0.1-1.3,0.4-2.6,1.4-3.6c0.9-0.9,2.2-1.3,3.5-1.3c0.8,0,1.6,0.1,2.3,0.3
		v2.8c-0.5-0.2-1.1-0.3-1.7-0.3c-0.7-0.1-1.3,0.1-1.8,0.6c-0.4,0.5-0.6,1.2-0.6,1.9v2h4v2.8h-4v11.3H110.5z"/>
	<path class="st1" d="M24.9,6.1c-3-1.4-6.5-1.5-9.6-0.3C16.8,6,18.3,6.4,19.6,7C21.3,6.4,23.1,6.1,24.9,6.1z"/>
	<path class="st2" d="M15.5,29.1c1.4,0.5,2.8,0.8,4.3,0.8c1,0,2.1-0.1,3.1-0.4c-1.3-0.2-2.6-0.6-3.8-1.1
		C17.9,28.7,16.7,28.9,15.5,29.1z"/>
	<path class="st3" d="M7.8,14.1c-0.6,2.2-0.6,4.4,0,6.6c0.2-1.1,0.5-2.2,0.9-3.2C8.2,16.4,8,15.2,7.8,14.1z"/>
	<path class="st4" d="M31,22.6c1.5-3.2,1.5-7,0.1-10.2c-0.1,1.9-0.4,3.7-1.1,5.4C30.6,19.4,30.9,21,31,22.6z"/>
	<path class="st5" d="M29.9,7.6c-1.1-0.4-2.3-0.6-3.5-0.6c-1.8-0.1-3.6,0.1-5.4,0.7c1.8,1,3.5,2.2,4.9,3.7c1.4,1.5,2.6,3.2,3.5,5.1
		c0.6-1.7,0.9-3.6,0.9-5.4C30.3,9.8,30.2,8.7,29.9,7.6z"/>
	<path class="st6" d="M12.7,24c-1.4-1.5-2.6-3.2-3.5-5.1c-0.4,1.1-0.7,2.3-0.8,3.5c-0.2,1.8-0.1,3.6,0.4,5.3
		c1.7,0.5,3.4,0.7,5.2,0.6c1.3-0.1,2.5-0.3,3.7-0.7C15.8,26.8,14.1,25.5,12.7,24z"/>
	<path class="st7" d="M29.3,19.3c-1.9,3.8-5,6.7-8.8,8.4c1.4,0.5,2.9,0.8,4.5,0.9c1.5,0.1,3,0,4.4-0.4c0.4-1.3,0.6-2.6,0.6-3.9
		C30.1,22.6,29.8,20.9,29.3,19.3z"/>
	<path class="st8" d="M13.6,6.6c-1.5-0.1-2.9,0.1-4.4,0.4c-0.5,1.6-0.7,3.2-0.6,4.9c0.1,1.4,0.3,2.7,0.7,4.1c1.9-3.8,5-6.7,8.8-8.4
		C16.7,7,15.1,6.7,13.6,6.6z"/>
</g>
</svg>
