<svg xmlns="http://www.w3.org/2000/svg" viewBox="0 0 125 40"><defs><style>.cls-1{fill:#1d1d1b;}.cls-2{fill:#312783;}.cls-3{fill:#467b37;}.cls-4{fill:#e63323;}.cls-5{fill:#005832;}.cls-6{fill:#83d0f5;}.cls-7{fill:#ffe843;}.cls-8{fill:#a8d3af;}.cls-9{fill:#f29fc5;}.cls-10{fill:#fff;}</style></defs><title>Logo Prueba Ikigai</title><g id="Layer_6" data-name="Layer 6"><path class="cls-1" d="M41.83,28.82v-20h3.3v20Z"/><path class="cls-1" d="M58,28.82,51.23,22v6.8h-3.1V7.66h3.1V20.07l5.39-5.36h3.92L54.25,21,62,28.82Z"/><path class="cls-1" d="M63.7,11.64A2,2,0,0,1,62.23,11a2,2,0,0,1-.62-1.48,2,2,0,0,1,.62-1.45,2,2,0,0,1,1.47-.61,2,2,0,0,1,1.47.61,2,2,0,0,1,.59,1.45A2.05,2.05,0,0,1,65.17,11,2,2,0,0,1,63.7,11.64ZM62.15,28.82V14.71h3.1V28.82Z"/><path class="cls-1" d="M74.39,35a7.55,7.55,0,0,1-4.72-1.41,5.25,5.25,0,0,1-2.13-3.67h3q.83,2.43,3.9,2.43a3.72,3.72,0,0,0,2.75-1.09,4.14,4.14,0,0,0,1.08-3.06V26.54a5.13,5.13,0,0,1-1.89,1.58,5.68,5.68,0,0,1-2.62.62A6.35,6.35,0,0,1,69,26.66a7.11,7.11,0,0,1-2-5.09,7.08,7.08,0,0,1,2-5.06,6.35,6.35,0,0,1,4.81-2.08,5.68,5.68,0,0,1,2.62.61,5,5,0,0,1,1.89,1.56V14.71h3.11V28a6.68,6.68,0,0,1-2,5.27A7.27,7.27,0,0,1,74.39,35Zm-3-10.34a4.26,4.26,0,0,0,6,0,4.25,4.25,0,0,0,1.21-3.09,4.25,4.25,0,0,0-1.21-3.09,4.26,4.26,0,0,0-6,0,4.25,4.25,0,0,0-1.21,3.09A4.25,4.25,0,0,0,71.37,24.66Z"/><path class="cls-1" d="M84.18,28.82V14.71h3.11v2.52a3.67,3.67,0,0,1,1.45-1.92A3.89,3.89,0,0,1,91,14.57a5.08,5.08,0,0,1,1.21.12v3.18a4.35,4.35,0,0,0-1.55-.25,3.07,3.07,0,0,0-2.4,1.14,4.74,4.74,0,0,0-1,3.18v6.88Z"/><path class="cls-1" d="M98.8,29.1A6.3,6.3,0,0,1,94,27a7.41,7.41,0,0,1-2-5.19,7.41,7.41,0,0,1,2-5.19,6.31,6.31,0,0,1,4.84-2.15,5.55,5.55,0,0,1,2.65.64,5.14,5.14,0,0,1,1.86,1.53V14.71h3.11V28.82h-3.11V26.93a5.16,5.16,0,0,1-1.86,1.54A5.66,5.66,0,0,1,98.8,29.1ZM96.34,25a4.16,4.16,0,0,0,6,0,4.57,4.57,0,0,0,1.19-3.21,4.61,4.61,0,0,0-1.19-3.22,4.16,4.16,0,0,0-6,0,4.6,4.6,0,0,0-1.18,3.22A4.56,4.56,0,0,0,96.34,25Z"/><path class="cls-1" d="M110.53,28.82V17.48H107.6V14.71h2.93V12.34a4.67,4.67,0,0,1,1.36-3.56,4.82,4.82,0,0,1,3.47-1.29,7.15,7.15,0,0,1,2.31.34V10.6a4.12,4.12,0,0,0-1.66-.29,2.56,2.56,0,0,0-1.81.55,2.56,2.56,0,0,0-.56,1.85v2h4v2.77h-4V28.82Z"/><path class="cls-2" d="M24.92,6.14a12.39,12.39,0,0,0-9.57-.34A17.33,17.33,0,0,1,19.64,7,17.14,17.14,0,0,1,24.92,6.14Z"/><path class="cls-3" d="M15.47,29.05a12.27,12.27,0,0,0,4.26.75,12.55,12.55,0,0,0,3.08-.38A18.29,18.29,0,0,1,19,28.3,16.44,16.44,0,0,1,15.47,29.05Z"/><path class="cls-4" d="M7.78,14.08a12.46,12.46,0,0,0,0,6.6,16.79,16.79,0,0,1,.87-3.21A17.75,17.75,0,0,1,7.78,14.08Z"/><path class="cls-5" d="M31,22.6a12.42,12.42,0,0,0,.08-10.22A16.79,16.79,0,0,1,30,17.81,17.45,17.45,0,0,1,31,22.6Z"/><path class="cls-6" d="M29.88,7.56a13.67,13.67,0,0,0-3.5-.62A15.85,15.85,0,0,0,21,7.61a18.68,18.68,0,0,1,4.93,3.71,18.52,18.52,0,0,1,3.47,5.1A15.78,15.78,0,0,0,30.33,11,13.81,13.81,0,0,0,29.88,7.56Z"/><path class="cls-7" d="M12.68,24a18.75,18.75,0,0,1-3.47-5.1,16.61,16.61,0,0,0-.83,3.55,14.35,14.35,0,0,0,.35,5.32,14.52,14.52,0,0,0,5.15.61,16.27,16.27,0,0,0,3.73-.67A18.68,18.68,0,0,1,12.68,24Z"/><path class="cls-8" d="M29.32,19.3a17.79,17.79,0,0,1-8.83,8.42,15.69,15.69,0,0,0,4.47.92,13.92,13.92,0,0,0,4.43-.43,14.47,14.47,0,0,0,.64-3.9A16.1,16.1,0,0,0,29.32,19.3Z"/><path class="cls-9" d="M13.57,6.63a14.38,14.38,0,0,0-4.35.44,14.35,14.35,0,0,0-.63,4.86A16.31,16.31,0,0,0,9.29,16a17.79,17.79,0,0,1,8.83-8.42A15.89,15.89,0,0,0,13.57,6.63Z"/><path class="cls-10" d="M19.53,8.13a18.33,18.33,0,0,0-5.74,3.73,18,18,0,0,0-4,5.56,18.43,18.43,0,0,0,9.28,9.73,18.21,18.21,0,0,0,5.74-3.73,18.26,18.26,0,0,0,4-5.55,18.26,18.26,0,0,0-3.73-5.75A18.38,18.38,0,0,0,19.53,8.13Z"/></g></svg>